<?xml version="1.0" encoding="UTF-8"?>
<svg width="752pt" height="752pt" fill="#FFC777" version="1.1" viewBox="0 0 752 752" xmlns="http://www.w3.org/2000/svg">
 <g>
  <path d="m428.09 463.14c-2.3672 1.8945-3.3164 2.8398-4.2617 3.7891-49.727 50.199-130.71 45.465-173.33-10.418-1.8945-2.3672-3.7891-3.7891-7.1055-4.2617-15.156-0.94531-25.574-17.523-20.836-33.625 0.94531-3.7891 0.94531-6.6289-0.94531-9.9453-21.312-48.305-11.367-94.715 29.836-132.13 25.574-23.207 54.934-37.887 89.98-39.309 30.309-0.94531 55.41 11.84 75.301 34.57 1.4219 1.4219 2.3672 3.3164 3.7891 4.2617 22.73 13.734 31.73 35.52 35.992 60.145 0.94531 4.2617 1.4219 8.9961 1.8945 13.262 0.47266 9.4727 1.8945 17.523 8.0508 26.047 10.418 13.734 4.2617 30.309-11.367 37.887-1.8945 0.94531-2.8398 3.7891-3.7891 5.6836-1.4219 2.8398-1.8945 6.1562-3.3164 9.4727 4.2617-0.94531 7.1055-0.94531 8.5234-5.6836 0.47266-1.8945 3.7891-3.7891 6.1562-4.2617 4.2617-0.47266 8.0508 0.47266 12.312 0.47266 1.4219 0 3.3164 0 4.7344-0.94531 5.6836-3.7891 10.418-1.8945 14.207 1.8945 2.8398 2.3672 4.7344 2.3672 8.0508 1.4219 5.2109-1.8945 10.418-2.3672 14.207 3.3164 0.94531 0.94531 2.3672 1.4219 3.7891 1.8945 3.7891 1.4219 7.5781 2.3672 11.367 3.3164 3.7891 0.94531 5.6836 3.3164 5.6836 7.1055 0 1.8945 1.4219 4.2617 2.8398 5.6836 4.7344 4.2617 9.4727 7.5781 8.5234 16.102-0.47266 4.2617 2.8398 8.9961 3.7891 13.262 0.47266 2.8398 0 6.1562-0.47266 9.4727 0 2.3672-0.94531 4.2617-0.94531 6.6289 0.47266 8.9961-0.94531 17.996-6.1562 25.102-4.2617 6.1562-10.418 10.891-16.102 16.102-2.3672 1.8945-4.7344 3.3164-7.1055 5.2109-3.7891 2.3672-7.5781 1.4219-10.891-1.4219-3.3164-3.3164-6.6289-6.6289-9.9453-10.418-4.2617-4.2617-8.0508-4.2617-11.84 0-3.3164 3.7891-6.6289 8.0508-10.418 12.312-6.1562-5.2109-7.5781-11.84-7.5781-18.941-8.0508-4.2617-14.207 1.8945-20.363 4.7344-8.0508 3.3164-9.9453 3.3164-14.207-3.7891-4.2617-7.1055-9.9453-13.262-12.785-20.836-3.3164-8.5234-2.3672-17.996 0.47266-26.52 2.3633-1.4336 2.8398-3.3281 4.2578-6.6445zm7.1055-28.414c-1.4219 0.94531-2.8398 1.8945-4.2617 2.8398-10.418 7.1055-22.258 9.9453-34.57 8.5234-23.68-2.3672-40.727-18.469-45.465-41.676-1.4219-6.6289-3.3164-8.0508-9.9453-7.1055-2.3672 0.47266-4.7344 1.4219-6.6289 2.3672 11.367 39.781-20.363 76.246-62.984 67.723 28.887 23.207 61.094 31.73 97.086 22.258 31.25-8.0469 53.035-26.516 66.77-54.93zm-149.65 25.098c24.152 0 43.57-18.941 43.57-42.621 0.47266-24.152-18.941-44.043-43.098-44.043-23.207 0-43.098 18.469-43.57 40.727-0.47266 26.523 17.523 45.938 43.098 45.938zm97.559-72.93h-1.8945c-2.3672-8.0508-4.2617-15.629-10.891-21.312-16.574 16.574-14.68 45.938 3.7891 62.039 18.941 16.102 47.832 13.262 62.984-7.1055 13.262-17.523 10.891-46.41-4.7344-56.355-0.47266 6.1562-0.47266 11.84-0.94531 17.051-4.7344-8.0508-9.4727-16.574-14.68-24.625-1.4219-1.8945-4.2617-4.2617-6.6289-4.7344-6.1562-0.47266-11.84 0-17.996 0-4.2617 0-5.2109 2.3672-5.6836 6.6289-0.48047 9.9453-1.8984 19.414-3.3203 28.414zm144.91 138.76c3.7891-5.6836 7.1055-10.891 10.418-16.102 0 0 0.94531 0.94531 2.8398 2.8398 1.4219-7.5781 3.7891-13.734 4.2617-20.363 0.94531-13.262-6.6289-26.047-16.574-29.363-1.8945-0.47266-3.3164-2.3672-5.2109-3.7891-6.6289-1.4219-13.734-2.8398-19.418 1.8945-5.2109 4.2617-3.3164-0.94531-4.7344-3.3164-2.8398 3.7891-6.1562 7.5781-8.9961 11.84-1.8945-5.2109-3.3164-9.4727-4.7344-14.68-1.4219 2.3672-1.8945 3.3164-3.3164 5.2109-4.7344-8.9961-12.312-11.367-19.418-12.785-1.8945 1.4219-3.3164 3.3164-4.7344 3.3164-11.367-1.4219-17.996 5.2109-23.207 14.207-4.7344 8.9961-6.6289 17.996-4.7344 28.414 1.4219-0.47266 2.3672-0.94531 3.7891-1.8945-0.94531 7.1055-0.47266 13.262 5.2109 18.941 0.47266-1.4219 0.94531-2.3672 1.8945-3.7891 0.47266 0 1.4219 0.47266 1.8945 0.47266 0.94531 3.3164 2.3672 6.6289 3.7891 10.891 7.5781-4.2617 15.156-8.0508 22.73-12.785 0.47266 0.94531 0.94531 2.3672 1.8945 5.2109 5.2109-3.3164 9.9453-6.6289 14.207-9.4727 3.3164 4.2617 6.6289 8.9961 10.418 13.734 1.8945-2.3672 2.8398-3.3164 3.3164-4.2617 6.1562 6.6289 11.84 13.262 17.051 18.941l7.5781-7.5781c0.47266 0.95312 1.418 1.8984 3.7852 4.2656zm-287.94-136.39c1.4219-0.47266 1.8945-0.94531 1.8945-0.94531 6.6289-9.4727 14.68-16.574 26.047-20.363 1.4219-0.47266 2.8398-2.3672 2.8398-3.7891 0.47266-4.2617 0-8.5234 0-13.262-3.7891 0.47266-7.5781 0.94531-11.84 1.8945 3.3164-11.84 7.1055-23.207 10.418-34.57h1.4219v24.152c4.2617-0.47266 7.5781-0.94531 11.84-1.4219-2.3672 8.5234-4.7344 16.574-7.5781 24.625 24.152-3.7891 42.148 4.7344 54.934 23.207 7.5781-0.94531 14.207-1.8945 19.891-2.3672 4.2617-8.9961 8.5234-17.996 13.262-28.414-6.1562-2.3672-13.262-7.1055-20.836-8.0508-28.887-4.2617-52.566-15.629-68.668-42.148-31.73 18.941-31.73 50.195-33.625 81.453zm291.73 65.355c-2.3672 8.0508 5.2109 7.1055 7.1055 10.418 2.3672 3.7891 5.2109 7.1055 7.5781 10.418 0.47266-0.47266 0.94531-0.47266 1.4219-0.94531-2.8398-6.6289-6.1562-12.785-8.9961-18.941h4.2617c-4.2617-8.0508-11.84-10.418-19.891-13.262 3.3164-1.4219 5.2109-2.8398 8.5234-4.2617-8.9961-4.7344-17.051-4.7344-26.52-3.7891 1.8945-2.8398 3.3164-4.2617 4.7344-6.1562 0-0.47266-0.47266-0.47266-0.47266-0.94531-4.2617 1.4219-8.0508 3.3164-11.84 4.7344-3.3164-2.8398-6.6289-5.6836-9.9453-8.5234-0.47266 0.47266-0.47266 0.47266-0.94531 0.94531 0.47266 2.3672 1.4219 4.2617 2.3672 7.5781-8.5234-4.2617-16.574-7.1055-26.047-5.2109 1.8945 2.3672 3.7891 4.2617 5.6836 7.1055-8.5234 0-16.102 0-22.73 5.6836 1.8945 0.94531 3.3164 1.4219 4.2617 1.4219-4.2617 3.7891-8.5234 7.5781-12.785 11.367 0.47266 0.47266 0.47266 0.47266 0.94531 0.94531 6.1562-2.8398 12.312-5.6836 21.312-10.418 4.7344 1.4219 12.785 4.2617 21.312 7.1055 0.47266-0.47266 0.94531-1.8945 2.3672-4.7344 3.3164 5.6836 5.6836 10.418 8.5234 15.156 4.2617-3.7891 8.5234-7.1055 13.734-11.84v5.6836c8.5156 0.46484 17.043 0.46484 26.039 0.46484zm-159.6-139.71c5.2109 10.418 9.9453 19.891 15.156 30.309 4.7344-0.94531 10.418-1.4219 17.996-2.8398-11.84-9.9453-22.258-18.473-33.152-27.469zm83.352 56.828v36.465c7.1055-3.3164 9.9453-9.4727 10.418-16.574 0-8.0508-2.8398-14.68-10.418-19.891zm-9.9453-8.0508c-2.3672-12.312-7.5781-25.574-17.051-38.359 0.94531 8.9961 1.8945 16.574 2.8398 24.625 0 1.4219 0.47266 2.8398 1.4219 3.3164 4.7383 3.7891 9.4766 7.5781 12.789 10.418zm-216.43 51.621c-4.2617 7.1055-4.2617 14.68-0.47266 21.785 3.3164 6.6289 8.5234 9.9453 13.262 9.4727-4.2656-10.422-8.5273-20.367-12.789-31.258z"/>
  <path d="m357.06 433.78c-1.4219 2.8398-2.3672 4.7344-3.3164 6.6289-0.47266 0.94531-1.8945 1.4219-2.8398 1.8945 0-0.94531-0.47266-2.3672 0-3.3164 0.47266-1.4219 0.94531-2.3672 1.4219-3.3164-1.4219-1.4219-2.8398-3.3164-3.7891-4.7344l1.4219-1.4219c1.418 1.4258 4.2578 2.8477 7.1016 4.2656z"/>
  <path d="m304.02 419.1c0 8.0508-3.3164 14.68-8.5234 16.102-5.6836 1.4219-11.367-2.3672-15.629-9.9453-3.7891-7.1055-5.6836-14.68-2.8398-22.258 1.4219-3.3164 4.2617-8.0508 7.5781-8.5234 3.3164-0.94531 8.0508 1.4219 10.891 4.2617 5.2109 3.7891 8.0508 12.312 8.5234 20.363z"/>
  <path d="m388.32 391.63c1.4219-4.7344 2.3672-9.4727 4.7344-13.734 3.3164-6.1562 9.9453-6.6289 15.156-1.8945 8.0508 7.5781 9.9453 25.102 3.7891 34.098-4.2617 6.1562-10.418 7.1055-15.629 1.8945-4.2656-4.2617-7.1055-12.312-8.0508-20.363z"/>
  <path d="m501.5 489.19c0-8.9961 7.1055-15.629 16.574-15.629 8.9961 0 16.102 7.5781 15.629 16.574 0 8.9961-7.5781 16.102-16.574 15.629-8.5234-0.47266-15.629-7.5781-15.629-16.574zm6.1562 8.9961c6.6289 6.1562 14.207 6.1562 19.418 1.4219 4.7344-4.7344 5.6836-11.367 1.8945-16.102 0.94531 13.734-6.1562 18.945-21.312 14.68z"/>
  <path d="m475.93 480.19c0 8.9961-7.1055 16.102-16.574 16.102-8.9961 0-16.102-7.5781-16.102-16.574s7.5781-16.102 16.574-16.102c9.4727 0 16.102 7.1055 16.102 16.574zm-12.312 11.84c-3.7891-1.8945-9.4727-3.3164-11.84-7.1055-2.3672-3.7891-1.8945-9.9453-2.3672-13.734-4.2617 3.7891-4.7344 10.891-0.47266 16.574 4.2617 5.6875 10.891 7.1094 14.68 4.2656z"/>
 </g>
</svg>
